<svg width="60" height="60" fill="none" xmlns="http://www.w3.org/2000/svg"><path d="M25.705 19.981a4.479 4.479 0 108.958 0 4.479 4.479 0 00-8.958 0z" fill="#666"/><path fill-rule="evenodd" clip-rule="evenodd" d="M30 60c16.569 0 30-13.431 30-30C60 13.431 46.569 0 30 0 13.431 0 0 13.431 0 30c0 16.569 13.431 30 30 30zM19.35 19.981c0-5.983 4.85-10.834 10.834-10.834 5.983 0 10.834 4.85 10.834 10.834 0 5.983-4.85 10.834-10.834 10.834S19.35 25.965 19.35 19.981zm21.732 16.407c-.137.11-2.736 2.164-7.074 3.048l6.547 6.488a2.946 2.946 0 01-4.162 4.17l-6.356-6.19-5.773 6.15c-.578.6-1.35.9-2.12.9a2.946 2.946 0 01-2.12-4.99l6.213-6.494c-4.459-.863-7.165-2.97-7.305-3.082a2.946 2.946 0 013.686-4.596c.027.021 2.858 2.148 7.419 2.15 4.56-.002 7.333-2.129 7.36-2.15a2.946 2.946 0 013.685 4.596z" fill="#666"/></svg>